HIERARCHY
ROOT Hips
{
  OFFSET 1.44925e-005 102.336 -0.101585
  CHANNELS 6 Xposition Yposition Zposition Zrotation Xrotation Yrotation
  JOINT LeftUpLeg
  {
    OFFSET 8.9458 -8.66707 0.101652
    CHANNELS 3 Zrotation Xrotation Yrotation
    JOINT LeftLeg
    {
      OFFSET 0 -44.4227 1.3727
      CHANNELS 3 Zrotation Xrotation Yrotation
      JOINT LeftFoot
      {
        OFFSET -0.253549 -42.0924 -1.46059
        CHANNELS 3 Zrotation Xrotation Yrotation
        JOINT LeftToes
        {
          OFFSET -0.04 -4.41509 8.4991
          CHANNELS 3 Zrotation Xrotation Yrotation
          End Site
          {
            OFFSET 0.08 -0.047448 9.77979
          }
        }
      }
    }
  }
  JOINT Spine
  {
    OFFSET 0 11.8905 0
    CHANNELS 3 Zrotation Xrotation Yrotation
    JOINT Spine1
    {
      OFFSET 0 25.6574 0.127663
      CHANNELS 3 Zrotation Xrotation Yrotation
      JOINT RightShoulder
      {
        OFFSET -8.99 -0.362252 -0.22
        CHANNELS 3 Zrotation Xrotation Yrotation
        JOINT RightArm
        {
          OFFSET -10.2827 -0.00338 0.322123
          CHANNELS 3 Zrotation Xrotation Yrotation
          JOINT RightForeArm
          {
            OFFSET -26.364 0.099144 -1.42434
            CHANNELS 3 Zrotation Xrotation Yrotation
            JOINT RightHand
            {
              OFFSET -22.0324 0.085362 1.02216
              CHANNELS 3 Zrotation Xrotation Yrotation
              End Site
              {
                OFFSET -13.3284 -0.6 1.50291
              }
            }
          }
        }
      }
      JOINT LeftShoulder1
      {
        OFFSET 8.99 -0.362252 -0.22
        CHANNELS 3 Zrotation Xrotation Yrotation
        JOINT LeftArm
        {
          OFFSET 10.2827 -0.00337999 0.322123
          CHANNELS 3 Zrotation Xrotation Yrotation
          JOINT LeftForeArm
          {
            OFFSET 26.2597 0.099144 -1.42434
            CHANNELS 3 Zrotation Xrotation Yrotation
            JOINT LeftHand
            {
              OFFSET 22.0902 0.085362 1.02216
              CHANNELS 3 Zrotation Xrotation Yrotation
              End Site
              {
                OFFSET 13.419 -0.6 1.50291
              }
            }
          }
        }
      }
      JOINT Head
      {
        OFFSET 0 8.73416 0.011341
        CHANNELS 3 Zrotation Xrotation Yrotation
        End Site
        {
          OFFSET -0.29 12.7742 2.51395
        }
      }
    }
  }
  JOINT RightUpLeg
  {
    OFFSET -8.9458 -8.66707 0.101652
    CHANNELS 3 Zrotation Xrotation Yrotation
    JOINT RightLeg
    {
      OFFSET 0 -44.4227 1.3727
      CHANNELS 3 Zrotation Xrotation Yrotation
      JOINT RightFoot
      {
        OFFSET 0.253549 -42.0924 -1.46059
        CHANNELS 3 Zrotation Xrotation Yrotation
        JOINT RightToes
        {
          OFFSET 0.04 -4.41509 8.4991
          CHANNELS 3 Zrotation Xrotation Yrotation
          End Site
          {
            OFFSET -0.08 -0.137448 9.77979
          }
        }
      }
    }
  }
}
MOTION
Frames:	14
Frame Time:	0.0333333
189.305 102.858 4.86885 -7.00385 -0.0763846 -90.4388 0.215489 4.97355 3.03718 0.709352 10.2318 15.6256 -3.37856 -12.1808 -0.0742986 -1.30608e-009 8.75234e-006 -1.45869e-008 -1.2482 8.45167 -0.198698 0.969174 -6.69043 -0.261775 36.5255 1.70037 -0.032285 40.841 -20.3388 1.95868 8.51501 40.1042 6.95556 -10.1517 9.48732 -0.359045 -44.241 3.64403 -3.65662 -27.6446 -11.5037 6.439 -4.24277 35.2577 -15.0906 5.82328 9.61819 -0.917488 2.25992 0.947486 -1.34064 -0.706419 4.7346 -4.33974 -0.72243 11.3708 -5.97764 3.78508 -13.5335 -0.0198192 0.0462048 0.000530889 0.662642 
189.322 102.858 4.87307 -6.98586 -0.0721714 -90.4692 0.21754 4.93621 3.03628 0.709892 10.2559 15.6456 -3.37803 -12.1808 -0.0742986 -1.30608e-009 8.75234e-006 -1.45869e-008 -1.17196 8.5098 -0.218983 0.774924 -6.74219 -0.263756 36.7694 1.70702 -0.0322851 40.6392 -20.302 1.96544 8.50172 40.1472 6.97444 -9.93699 9.49258 -0.306781 -44.0314 3.61992 -3.64159 -27.798 -11.6217 6.41852 -4.25601 35.2827 -15.0561 5.82328 9.61819 -0.917488 2.18058 -0.495493 -2.19312 -0.706259 4.70155 -4.33383 -0.717048 11.3713 -5.95214 3.78503 -13.5234 -0.0198183 0.0462048 0.000530889 0.662642 
189.345 102.858 4.87909 -6.95216 -0.064585 -90.4994 0.221278 4.8725 3.03192 0.707859 10.2882 15.6664 -3.37963 -12.1809 -0.0742986 -1.30608e-009 8.75234e-006 -1.45869e-008 -1.12084 8.48419 -0.259052 0.578176 -6.62887 -0.277951 37.0462 1.71432 -0.0322853 40.4489 -20.2552 2.07284 8.54003 39.9852 6.95989 -9.80497 9.50874 -0.441107 -43.8418 3.59753 -3.62666 -27.9099 -11.7453 6.35636 -4.24209 35.2806 -15.0598 5.82328 9.61819 -0.917488 2.01859 -2.51533 -3.24722 -0.700574 4.64481 -4.30638 -0.72696 11.3723 -5.94811 3.79143 -13.5053 -0.0198168 0.0462048 0.000530889 0.662642 
189.363 102.858 4.88379 -6.92513 -0.0660253 -90.5021 0.224961 4.81417 3.02474 0.70369 10.3256 15.6623 -3.3939 -12.182 -0.074299 -1.30608e-009 8.75234e-006 -1.45869e-008 -1.13781 8.50571 -0.299549 0.493158 -6.56591 -0.310368 37.1681 1.71766 -0.0322853 40.3904 -20.1264 2.13405 8.64998 39.4258 6.93395 -10.0782 9.52563 -0.806323 -43.7382 3.58534 -3.61852 -27.9548 -11.8285 6.34994 -4.17879 35.3684 -15.1014 5.82328 9.61819 -0.917488 1.92002 -3.33666 -3.5312 -0.700256 4.60111 -4.28959 -0.73689 11.3777 -5.95833 3.81712 -13.4985 -0.0198163 0.0462048 0.000530889 0.662642 
189.374 102.858 4.88585 -6.91819 -0.071661 -90.4995 0.227401 4.77668 3.02242 0.699114 10.3725 15.6524 -3.40817 -12.1832 -0.0742993 -1.30608e-009 8.75234e-006 -1.45869e-008 -1.12811 8.76794 -0.334653 0.385475 -6.85206 -0.33513 37.2378 1.72057 -0.0322854 40.3321 -19.8844 1.9972 8.71211 38.9347 6.98999 -10.3484 9.52592 -0.945197 -43.5927 3.56833 -3.60722 -28.0557 -11.85 6.47932 -4.12185 35.5038 -15.133 5.82328 9.61819 -0.917488 2.13608 -2.83624 -2.80999 -0.71326 4.57929 -4.29959 -0.730346 11.3934 -5.94854 3.83239 -13.504 -0.0198167 0.0462048 0.000530889 0.662642 
189.386 102.858 4.88829 -6.92337 -0.065558 -90.5177 0.232206 4.7553 3.02981 0.696591 10.4159 15.669 -3.40135 -12.1834 -0.0742993 -1.30608e-009 8.75234e-006 -1.45869e-008 -1.0754 9.08285 -0.360544 0.242907 -7.19966 -0.344785 37.2971 1.72399 -0.0322854 40.2774 -19.7142 1.82797 8.6145 39.1636 7.12438 -10.0522 9.5072 -0.552753 -43.5038 3.5566 -3.5976 -28.1277 -11.7459 6.62307 -4.12726 35.4428 -15.1471 5.82328 9.61819 -0.917488 2.48652 -1.8399 -1.67283 -0.715063 4.56303 -4.30588 -0.723012 11.4147 -5.93033 3.81728 -13.5002 -0.0198164 0.0462048 0.000530889 0.662642 
189.398 102.861 4.89381 -6.92389 -0.0450066 -90.5452 0.246006 4.73673 3.03779 0.698887 10.4429 15.7001 -3.37481 -12.1813 -0.0742988 -1.30608e-009 8.75234e-006 -1.45869e-008 -1.06062 9.14015 -0.368093 0.196799 -7.14895 -0.346691 37.2592 1.72635 -0.0322855 40.3531 -19.7634 1.85345 8.42231 39.947 7.23968 -9.3737 9.4913 0.053617 -43.6393 3.5692 -3.60174 -28.0224 -11.539 6.61703 -4.17204 35.1532 -15.1722 5.82328 9.61819 -0.917488 2.71074 -1.51877 -0.952523 -0.695448 4.54828 -4.28814 -0.730124 11.4166 -5.93274 3.79359 -13.4712 -0.019814 0.0462048 0.000530889 0.662642 
189.407 102.865 4.90619 -6.91368 -0.0242742 -90.5633 0.257238 4.71624 3.037 0.704683 10.4561 15.7103 -3.36028 -12.1724 -0.0742963 -1.30608e-009 8.75234e-006 -1.45869e-008 -1.05757 9.08259 -0.361777 0.175586 -6.94459 -0.337331 37.2011 1.72832 -0.0340859 40.465 -19.8747 1.93864 8.30451 40.4375 7.29246 -8.94021 9.4887 0.387947 -43.8164 3.58486 -3.60552 -27.8743 -11.3628 6.54977 -4.1754 34.9268 -15.2265 5.82328 9.61819 -0.917488 2.80285 -1.36216 -1.10342 -0.678538 4.54565 -4.26946 -0.732722 11.3804 -5.94079 3.78612 -13.4258 -0.0198102 0.0462048 0.000530889 0.662642 
189.415 102.869 4.92013 -6.89643 -0.00951554 -90.5856 0.263365 4.69338 3.03336 0.708758 10.4652 15.709 -3.37763 -12.1521 -0.0742906 -1.30608e-009 8.75234e-006 -1.45869e-008 -0.937404 9.31737 -0.366297 -0.0597094 -7.21086 -0.311653 37.3411 1.72967 -0.0430435 40.3657 -19.8708 1.80687 8.29847 40.355 7.3226 -8.87578 9.49302 0.374303 -43.7082 3.56575 -3.58426 -27.928 -11.3018 6.64169 -4.10556 34.9475 -15.3003 5.82328 9.61819 -0.917488 2.99192 -1.29078 -1.48082 -0.675965 4.54288 -4.26269 -0.72647 11.3307 -5.92374 3.78195 -13.3818 -0.0198066 0.0462048 0.000530889 0.662642 
189.431 102.872 4.92686 -6.87586 0.00784852 -90.6311 0.274737 4.66182 3.03954 0.708319 10.4764 15.7355 -3.40171 -12.1336 -0.0742854 -1.30608e-009 8.75234e-006 -1.45869e-008 -0.728446 9.80941 -0.396705 -0.450314 -7.85986 -0.294011 37.6304 1.73013 -0.0553571 40.1137 -19.8949 1.56239 8.28744 40.3273 7.33766 -8.81956 9.50897 0.17913 -43.4023 3.52539 -3.55098 -28.1111 -11.3272 6.86905 -4.01623 35.0656 -15.3683 5.82328 9.61819 -0.917488 3.3511 -1.35691 -1.77518 -0.663644 4.51371 -4.23989 -0.729175 11.3071 -5.89875 3.75953 -13.3448 -0.0198036 0.0462048 0.000530889 0.662642 
189.455 102.874 4.92549 -6.85293 0.0312225 -90.6815 0.297038 4.61665 3.05783 0.704009 10.4946 15.7795 -3.39838 -12.1224 -0.0742823 -1.30608e-009 8.75234e-006 -1.45869e-008 -0.654429 10.0903 -0.431898 -0.602801 -8.15415 -0.314711 37.7392 1.72936 -0.0604681 40.0469 -20.1531 1.56068 8.20709 40.754 7.29887 -8.65015 9.53951 -0.159172 -43.2931 3.51439 -3.54575 -28.1588 -11.4135 6.98137 -3.96577 35.123 -15.4031 5.82328 9.61819 -0.917488 3.35931 -1.56992 -1.95009 -0.63037 4.46727 -4.19076 -0.747141 11.3002 -5.90265 3.73261 -13.3105 -0.0198008 0.0462048 0.000530889 0.662642 
189.477 102.875 4.92535 -6.82442 0.0478157 -90.7072 0.319089 4.56232 3.07579 0.695578 10.5175 15.793 -3.37557 -12.1119 -0.0742794 -1.30608e-009 8.75234e-006 -1.45869e-008 -0.84372 9.97921 -0.433767 -0.321909 -7.84343 -0.360428 37.5366 1.72482 -0.0619804 40.2715 -20.5216 1.83977 8.12034 41.1831 7.23679 -8.58694 9.5686 -0.558731 -43.4869 3.54553 -3.57812 -28.048 -11.5989 6.8738 -3.96314 35.2038 -15.3765 5.82328 9.61819 -0.917488 2.90227 -1.92896 -2.11894 -0.608777 4.43064 -4.1575 -0.751508 11.2739 -5.91994 3.72885 -13.2783 -0.0197981 0.0462048 0.000530889 0.662642 
189.497 102.877 4.93011 -6.78261 0.0462063 -90.7137 0.32336 4.50068 3.07542 0.683963 10.5311 15.7835 -3.36381 -12.0958 -0.0742749 -1.30608e-009 8.75234e-006 -1.45869e-008 -1.16464 9.78727 -0.393447 0.138728 -7.43595 -0.391212 37.2602 1.71662 -0.0617888 40.5305 -20.7301 2.10167 8.07832 41.1761 7.23837 -8.69931 9.57805 -0.772882 -43.7293 3.58257 -3.61442 -27.9588 -11.8992 6.67044 -4.01125 35.4372 -15.2566 5.82328 9.61819 -0.917488 2.42239 -2.39728 -2.3021 -0.626822 4.38388 -4.17057 -0.727676 11.2501 -5.90503 3.73955 -13.2554 -0.0197963 0.0462048 0.000530889 0.662642 
189.523 102.878 4.93669 -6.7303 0.0338846 -90.7267 0.309026 4.43131 3.05429 0.673138 10.5267 15.8082 -3.36674 -12.0783 -0.0742701 -1.30608e-009 8.75234e-006 -1.45869e-008 -1.40672 9.74841 -0.340511 0.444058 -7.27646 -0.387164 37.1501 1.71128 -0.0609508 40.6226 -20.7324 2.22042 8.04597 40.9891 7.31447 -8.81246 9.57018 -0.722707 -43.85 3.59713 -3.62463 -27.9334 -12.2021 6.46115 -4.11467 35.7262 -15.0643 5.82328 9.61819 -0.917488 2.19988 -2.81983 -2.42272 -0.660927 4.29087 -4.19704 -0.705283 11.2843 -5.86229 3.73127 -13.2491 -0.0197958 0.0462048 0.000530889 0.662642 
